<svg height="512" viewBox="0 0 512 512" width="512" xmlns="http://www.w3.org/2000/svg"><g fill="none"><path d="m491.271425 105.986227-252.165463 284.777944c-1.241246 1.401781-3.407045 1.467893-4.731482.144466l-115.629867-115.54034c-1.062148-1.061337-1.259197-2.712047-.476723-3.993572l31.347132-51.33968c1.096903-1.796477 3.585899-2.092709 5.073809-.603881l69.33163 69.375062c.995638.996265 2.641849.883814 3.492746-.238615l194.106926-256.0473184c1.08567-1.4321169 3.138437-1.7059829 4.568775-.6179641 25.582027 19.4595563 47.734849 43.2021646 65.376714 70.1579335.800135 1.222503.6744 2.832108-.294197 3.925965z" fill="#29e271"/><path d="m511.788137 255.982003c0 141.276414-114.526874 255.804297-255.798329 255.805766-141.175364.001531-255.82763549-114.66583-255.80850597-255.841209.01915249-141.261049 114.54018697-255.76568838 255.80572097-255.76568838 42.249847 0 82.108349 10.24475658 117.230105 28.38879048 1.792299.925896 2.315193 3.2467327 1.096566 4.8543746l-26.797044 35.3514745c-1.319876 1.7412616-3.672502 2.3218734-5.655209 1.4037555-26.015212-12.046569-54.989012-18.7904093-85.530546-18.8406587-113.03177-.1859773-204.9889814 91.614165-204.9875123 204.646088.0014462 112.698978 91.0971093 204.116339 203.6737263 204.638682 113.410505.52623 205.248654-90.567795 205.607922-203.978942.054297-17.145415-2.000888-33.805614-5.921891-49.729004-.435204-1.767354.037862-3.635146 1.244491-4.997827l33.673574-38.028067c1.614226-1.822967 4.597637-1.294089 5.46523.981055 10.792605 28.303822 16.701702 59.013451 16.701702 91.11141z" fill="#000"/></g></svg>